<svg width="1440" height="582" viewBox="0 0 1440 582" fill="none" xmlns="http://www.w3.org/2000/svg">
<path opacity="0.2" d="M1356.5 323.103C1356.5 329.999 1350.45 335.979 1342.5 335.979C1334.55 335.979 1328.5 329.999 1328.5 323.103C1328.5 316.207 1334.55 310.227 1342.5 310.227C1350.45 310.227 1356.5 316.207 1356.5 323.103Z" stroke="white" stroke-width="7"/>
<g opacity="0.2">
<path d="M1227.11 123.025L1262.21 112.263L1255.35 146.221L1227.11 123.025Z" stroke="white" stroke-width="5"/>
<path d="M1245.04 126.381L1280.14 115.619L1273.28 149.578L1245.04 126.381Z" stroke="white" stroke-width="5"/>
<path d="M1227.11 136.45L1262.21 125.687L1255.35 159.646L1227.11 136.45Z" stroke="white" stroke-width="5"/>
</g>
<path d="M767.772 238.367H762.133V208.036H763.486L765.722 210.682C766.228 210.203 766.781 209.752 767.383 209.328C767.984 208.904 768.606 208.542 769.249 208.241C769.905 207.927 770.582 207.681 771.279 207.503C771.977 207.325 772.681 207.236 773.392 207.236C774.937 207.236 776.386 207.517 777.739 208.077C779.106 208.624 780.296 209.403 781.308 210.415C782.333 211.427 783.14 212.65 783.728 214.086C784.315 215.508 784.609 217.087 784.609 218.823C784.609 220.628 784.315 222.255 783.728 223.704C783.14 225.14 782.333 226.363 781.308 227.375C780.296 228.373 779.106 229.139 777.739 229.672C776.386 230.205 774.937 230.472 773.392 230.472C772.899 230.472 772.407 230.417 771.915 230.308C771.437 230.198 770.958 230.055 770.479 229.877C770.015 229.686 769.55 229.474 769.085 229.241C768.634 229.009 768.196 228.77 767.772 228.523V238.367ZM778.99 218.823C778.99 217.894 778.84 217.06 778.539 216.321C778.252 215.583 777.855 214.961 777.35 214.455C776.844 213.936 776.249 213.539 775.565 213.266C774.882 212.992 774.157 212.855 773.392 212.855C772.626 212.855 771.901 212.992 771.218 213.266C770.548 213.539 769.96 213.936 769.454 214.455C768.948 214.961 768.545 215.583 768.244 216.321C767.957 217.06 767.813 217.894 767.813 218.823C767.813 219.712 767.957 220.525 768.244 221.264C768.545 222.002 768.948 222.631 769.454 223.15C769.96 223.67 770.548 224.073 771.218 224.36C771.901 224.647 772.626 224.791 773.392 224.791C774.157 224.791 774.882 224.647 775.565 224.36C776.249 224.073 776.844 223.67 777.35 223.15C777.855 222.631 778.252 222.002 778.539 221.264C778.84 220.525 778.99 219.712 778.99 218.823Z" fill="white" fill-opacity="0.2"/>
<path d="M647.358 133.823C647.358 135.464 647.064 136.995 646.477 138.417C645.889 139.825 645.089 141.049 644.077 142.088C643.065 143.113 641.876 143.927 640.509 144.528C639.155 145.116 637.699 145.41 636.141 145.41C634.596 145.41 633.14 145.116 631.772 144.528C630.419 143.927 629.229 143.113 628.204 142.088C627.192 141.049 626.393 139.825 625.805 138.417C625.217 136.995 624.923 135.464 624.923 133.823C624.923 132.155 625.217 130.61 625.805 129.188C626.393 127.767 627.192 126.543 628.204 125.518C629.229 124.479 630.419 123.665 631.772 123.077C633.14 122.489 634.596 122.195 636.141 122.195C637.699 122.195 639.155 122.476 640.509 123.036C641.876 123.583 643.065 124.369 644.077 125.395C645.089 126.406 645.889 127.63 646.477 129.065C647.064 130.487 647.358 132.073 647.358 133.823ZM641.719 133.823C641.719 132.921 641.568 132.107 641.268 131.383C640.98 130.645 640.584 130.016 640.078 129.496C639.572 128.963 638.978 128.56 638.294 128.286C637.624 127.999 636.906 127.855 636.141 127.855C635.375 127.855 634.65 127.999 633.967 128.286C633.297 128.56 632.709 128.963 632.203 129.496C631.711 130.016 631.321 130.645 631.034 131.383C630.747 132.107 630.604 132.921 630.604 133.823C630.604 134.671 630.747 135.457 631.034 136.182C631.321 136.906 631.711 137.535 632.203 138.068C632.709 138.602 633.297 139.025 633.967 139.34C634.65 139.641 635.375 139.791 636.141 139.791C636.906 139.791 637.624 139.647 638.294 139.36C638.978 139.073 639.572 138.67 640.078 138.15C640.584 137.631 640.98 137.002 641.268 136.264C641.568 135.525 641.719 134.712 641.719 133.823Z" fill="white" fill-opacity="0.2"/>
<path d="M1201.25 311H1195.65V294.614H1192.92V289.036H1195.65V287.99C1195.65 286.637 1195.9 285.365 1196.41 284.176C1196.93 282.986 1197.63 281.954 1198.52 281.079C1199.42 280.19 1200.47 279.493 1201.66 278.987C1202.85 278.468 1204.12 278.208 1205.47 278.208H1209.68V283.786H1205.47C1204.87 283.786 1204.31 283.896 1203.79 284.114C1203.29 284.319 1202.84 284.613 1202.46 284.996C1202.09 285.365 1201.8 285.81 1201.58 286.329C1201.36 286.835 1201.25 287.389 1201.25 287.99V289.036H1208.12V294.614H1201.25V311Z" fill="white" fill-opacity="0.2"/>
<path d="M380.859 280.264C380.859 282.861 380.402 285.199 379.486 287.277C378.571 289.355 377.346 291.112 375.812 292.547C374.279 293.982 372.497 295.083 370.469 295.85C368.465 296.617 366.362 297 364.16 297H342.711V286.35H364.16C364.878 286.35 365.595 286.238 366.312 286.016C367.055 285.793 367.71 285.434 368.279 284.939C368.873 284.445 369.343 283.814 369.689 283.047C370.061 282.28 370.246 281.352 370.246 280.264C370.246 279.274 370.061 278.408 369.689 277.666C369.343 276.899 368.873 276.268 368.279 275.773C367.71 275.254 367.055 274.87 366.312 274.623C365.595 274.351 364.878 274.215 364.16 274.215H342.711L345.828 243.785H378.67V254.436H355.402L354.438 263.564H364.16C366.362 263.564 368.465 263.948 370.469 264.715C372.497 265.482 374.279 266.595 375.812 268.055C377.346 269.49 378.571 271.246 379.486 273.324C380.402 275.378 380.859 277.691 380.859 280.264Z" fill="white" fill-opacity="0.1"/>
<path d="M398.486 32.5918C398.486 33.918 398.186 35.1416 397.584 36.2627C396.982 37.3838 396.155 38.3545 395.103 39.1748C394.063 39.9814 392.847 40.6104 391.452 41.0615C390.058 41.5264 388.567 41.7588 386.981 41.7588C385.396 41.7588 383.905 41.5264 382.511 41.0615C381.116 40.6104 379.893 39.9814 378.84 39.1748C377.801 38.3545 376.98 37.3838 376.379 36.2627C375.777 35.1416 375.477 33.918 375.477 32.5918C375.477 31.8262 375.579 31.0811 375.784 30.3564C375.989 29.6182 376.283 28.9277 376.666 28.2852C377.062 27.6426 377.534 27.0547 378.081 26.5215C378.628 25.9746 379.243 25.5098 379.927 25.127C379.503 24.7578 379.12 24.334 378.778 23.8555C378.45 23.377 378.163 22.8711 377.917 22.3379C377.685 21.8047 377.507 21.2578 377.384 20.6973C377.261 20.123 377.199 19.5557 377.199 18.9951C377.199 17.8467 377.452 16.7734 377.958 15.7754C378.478 14.7637 379.182 13.8818 380.07 13.1299C380.959 12.3643 381.998 11.7627 383.188 11.3252C384.377 10.8877 385.642 10.6689 386.981 10.6689C388.335 10.6689 389.606 10.8877 390.796 11.3252C391.985 11.7627 393.024 12.3643 393.913 13.1299C394.815 13.8818 395.52 14.7637 396.025 15.7754C396.545 16.7734 396.805 17.8467 396.805 18.9951C396.805 19.5557 396.736 20.123 396.6 20.6973C396.477 21.2578 396.299 21.8115 396.066 22.3584C395.834 22.8916 395.547 23.3975 395.205 23.876C394.877 24.3545 394.501 24.7852 394.077 25.168C394.747 25.5508 395.355 26.0088 395.902 26.542C396.449 27.0752 396.914 27.6631 397.297 28.3057C397.68 28.9482 397.974 29.6318 398.179 30.3564C398.384 31.0811 398.486 31.8262 398.486 32.5918ZM391.042 19.6309C391.042 19.1523 390.933 18.708 390.714 18.2979C390.509 17.874 390.222 17.5049 389.853 17.1904C389.497 16.876 389.073 16.6299 388.581 16.4521C388.089 16.2744 387.569 16.1855 387.022 16.1855C386.462 16.1855 385.936 16.2744 385.443 16.4521C384.951 16.6299 384.521 16.876 384.151 17.1904C383.796 17.5049 383.509 17.874 383.29 18.2979C383.085 18.708 382.982 19.1523 382.982 19.6309C382.982 20.1094 383.085 20.5537 383.29 20.9639C383.509 21.374 383.796 21.7295 384.151 22.0303C384.521 22.3311 384.951 22.5703 385.443 22.748C385.936 22.9258 386.462 23.0146 387.022 23.0146C387.569 23.0146 388.089 22.9258 388.581 22.748C389.073 22.5703 389.497 22.3311 389.853 22.0303C390.222 21.7295 390.509 21.374 390.714 20.9639C390.933 20.5537 391.042 20.1094 391.042 19.6309ZM392.642 32.4277C392.642 31.7715 392.491 31.1631 392.19 30.6025C391.903 30.0283 391.5 29.5293 390.98 29.1055C390.475 28.6816 389.873 28.3467 389.176 28.1006C388.492 27.8545 387.761 27.7314 386.981 27.7314C386.202 27.7314 385.471 27.8545 384.787 28.1006C384.104 28.3467 383.502 28.6816 382.982 29.1055C382.477 29.5293 382.073 30.0283 381.772 30.6025C381.485 31.1631 381.342 31.7715 381.342 32.4277C381.342 33.084 381.485 33.6855 381.772 34.2324C382.073 34.7793 382.477 35.251 382.982 35.6475C383.502 36.0439 384.104 36.3584 384.787 36.5908C385.471 36.8096 386.202 36.9189 386.981 36.9189C387.761 36.9189 388.492 36.8096 389.176 36.5908C389.873 36.3584 390.475 36.0439 390.98 35.6475C391.5 35.251 391.903 34.7793 392.19 34.2324C392.491 33.6855 392.642 33.084 392.642 32.4277Z" fill="white" fill-opacity="0.2"/>
<path d="M432.646 540.296C432.646 537.028 432.1 534.602 431.006 533.016C429.926 531.43 428.415 530.637 426.474 530.637C424.546 530.637 423.049 531.423 421.982 532.995C420.916 534.567 420.383 537.001 420.383 540.296C420.383 543.563 420.916 545.99 421.982 547.576C423.049 549.162 424.546 549.955 426.474 549.955C427.444 549.955 428.312 549.764 429.078 549.381C429.844 548.984 430.486 548.39 431.006 547.597C431.539 546.804 431.942 545.806 432.216 544.603C432.503 543.386 432.646 541.95 432.646 540.296ZM438.245 540.296C438.245 543.085 437.938 545.443 437.322 547.371C436.707 549.299 435.866 550.857 434.8 552.047C433.733 553.236 432.482 554.098 431.047 554.631C429.625 555.15 428.101 555.41 426.474 555.41C424.847 555.41 423.315 555.144 421.88 554.61C420.458 554.063 419.214 553.195 418.147 552.006C417.095 550.803 416.261 549.244 415.646 547.33C415.03 545.402 414.723 543.058 414.723 540.296C414.723 537.507 415.03 535.155 415.646 533.241C416.261 531.313 417.095 529.755 418.147 528.565C419.214 527.376 420.458 526.515 421.88 525.981C423.315 525.448 424.847 525.182 426.474 525.182C428.101 525.182 429.625 525.455 431.047 526.002C432.482 526.535 433.733 527.403 434.8 528.606C435.866 529.81 436.707 531.368 437.322 533.282C437.938 535.196 438.245 537.534 438.245 540.296Z" fill="white" fill-opacity="0.2"/>
<path d="M702.91 527H697.045V506C697.045 505.59 696.963 505.207 696.799 504.852C696.648 504.496 696.437 504.188 696.163 503.929C695.903 503.655 695.596 503.443 695.24 503.293C694.885 503.143 694.502 503.067 694.092 503.067C693.682 503.067 693.299 503.143 692.943 503.293C692.588 503.443 692.273 503.655 692 503.929C691.74 504.188 691.535 504.496 691.385 504.852C691.234 505.207 691.159 505.59 691.159 506V527H685.273V506C685.273 505.59 685.198 505.207 685.048 504.852C684.897 504.496 684.686 504.188 684.412 503.929C684.152 503.655 683.845 503.443 683.489 503.293C683.134 503.143 682.751 503.067 682.341 503.067C681.931 503.067 681.548 503.143 681.192 503.293C680.837 503.443 680.522 503.655 680.249 503.929C679.989 504.188 679.784 504.496 679.634 504.852C679.483 505.207 679.408 505.59 679.408 506V527H673.522V506C673.522 504.783 673.748 503.642 674.199 502.575C674.664 501.495 675.293 500.559 676.086 499.766C676.893 498.959 677.829 498.33 678.896 497.879C679.976 497.414 681.124 497.182 682.341 497.182C683.435 497.182 684.487 497.38 685.499 497.776C686.511 498.159 687.42 498.72 688.227 499.458C689.033 498.72 689.936 498.159 690.934 497.776C691.945 497.38 692.998 497.182 694.092 497.182C695.309 497.182 696.45 497.414 697.517 497.879C698.597 498.33 699.533 498.959 700.326 499.766C701.133 500.559 701.762 501.495 702.213 502.575C702.678 503.642 702.91 504.783 702.91 506V527Z" fill="white" fill-opacity="0.2"/>
<path d="M829.772 425H824.133V394.3H829.772V413.659L838.119 403.077H844.559L837.278 412.224L844.559 425H838.119L833.669 417.022L829.772 422.19V425Z" fill="white" fill-opacity="0.2"/>
<path d="M685.275 89H672.361L662.119 71.8184L651.84 89H639L655.328 62.3926L639 35.7852H651.84L662.119 52.9668L672.361 35.7852H685.275L668.947 62.3926L685.275 89Z" fill="white" fill-opacity="0.1"/>
<path d="M1188.91 73.1816C1188.91 74.3984 1188.67 75.54 1188.21 76.6064C1187.74 77.6729 1187.11 78.6094 1186.3 79.416C1185.51 80.209 1184.58 80.8379 1183.51 81.3027C1182.45 81.7676 1181.31 82 1180.09 82H1165.38V52.5918H1180.09C1181.31 52.5918 1182.45 52.8242 1183.51 53.2891C1184.58 53.7539 1185.51 54.3896 1186.3 55.1963C1187.11 55.9893 1187.74 56.9189 1188.21 57.9854C1188.67 59.0518 1188.91 60.1934 1188.91 61.4102C1188.91 61.957 1188.83 62.5176 1188.68 63.0918C1188.53 63.666 1188.32 64.2197 1188.05 64.7529C1187.77 65.2861 1187.44 65.7715 1187.06 66.209C1186.68 66.6465 1186.25 67.0088 1185.79 67.2959C1186.27 67.5557 1186.7 67.9111 1187.08 68.3623C1187.46 68.7998 1187.79 69.2852 1188.07 69.8184C1188.34 70.3516 1188.54 70.9121 1188.68 71.5C1188.83 72.0742 1188.91 72.6348 1188.91 73.1816ZM1171.27 76.1143H1180.09C1180.5 76.1143 1180.88 76.0391 1181.24 75.8887C1181.59 75.7383 1181.9 75.5332 1182.16 75.2734C1182.43 75 1182.65 74.6855 1182.8 74.3301C1182.95 73.9746 1183.02 73.5918 1183.02 73.1816C1183.02 72.7715 1182.95 72.3887 1182.8 72.0332C1182.65 71.6777 1182.43 71.3701 1182.16 71.1104C1181.9 70.8369 1181.59 70.625 1181.24 70.4746C1180.88 70.3242 1180.5 70.249 1180.09 70.249H1171.27V76.1143ZM1171.27 64.3633H1180.09C1180.5 64.3633 1180.88 64.2881 1181.24 64.1377C1181.59 63.9873 1181.9 63.7822 1182.16 63.5225C1182.43 63.249 1182.65 62.9346 1182.8 62.5791C1182.95 62.21 1183.02 61.8203 1183.02 61.4102C1183.02 61 1182.95 60.6172 1182.8 60.2617C1182.65 59.9062 1182.43 59.5986 1182.16 59.3389C1181.9 59.0654 1181.59 58.8535 1181.24 58.7031C1180.88 58.5527 1180.5 58.4775 1180.09 58.4775H1171.27V64.3633Z" fill="white" fill-opacity="0.2"/>
</svg>
