<svg width="2048" height="1480" viewBox="0 0 2048 1480" fill="none" xmlns="http://www.w3.org/2000/svg">
<rect width="2048" height="1480" fill="#9AA0A0"/>
<rect x="218.5" y="424.5" width="1597" height="974" fill="#626466"/>
<path d="M1017.5 114.5L1815.5 424.5H218.5L1017.5 114.5Z" fill="#626466"/>
<path d="M1019 116.5L1817 426.5V484L1019 176.5L218.5 484V424.5L1019 116.5Z" fill="#6E7376"/>
<path d="M1015 85.5L1442 246L1886 417L1817 460V426.5L1015 120L218.5 424.5V459.5L143.5 417L591.5 246L1015 85.5Z" fill="#333331"/>
<g clip-path="url(#clip0_1_96)">
<path d="M1015.5 45L1454 211L1896.5 384V421L1438 245L1015.5 85.5L573 252.5L134 421V384L573 211L1015.5 45Z" fill="#676B6E"/>
<path d="M1014.5 79L1898.97 416.056" stroke="#82858A" stroke-width="6"/>
<path d="M132.438 415.694L1016.5 79" stroke="#82858A" stroke-width="6"/>
</g>
<path d="M126 384.5L1017.5 47" stroke="#4F5457" stroke-width="6"/>
<path d="M1016 46.5L1903.5 383.5" stroke="#4F5457" stroke-width="6"/>
<path d="M0 1397H2048V1480H0V1397Z" fill="#BDC3C3"/>
<path d="M1017.5 24L1022.5 24.5L1026.5 26L1033 29L1039.5 33.5L1046 39V55L1017.5 44.7295L990 54.5V39L995.5 33.5L1002 29L1008.5 26L1013 24.5L1017.5 24Z" fill="#282826"/>
<rect x="451" y="478" width="26" height="919" fill="#545557"/>
<rect x="1568" y="478" width="26" height="919" fill="#545557"/>
<path d="M481 1397L481 477.5" stroke="#303133" stroke-width="8"/>
<path d="M1564 1397L1564 477" stroke="#303133" stroke-width="8"/>
<path d="M413 446H1634" stroke="white" stroke-width="7"/>
<rect x="413" y="449.5" width="1221" height="21" fill="#C9C8CD"/>
<rect x="414" y="470.5" width="1219" height="7" fill="#D9D9D9"/>
<rect x="485" y="477.5" width="1075" height="12" fill="#8A8B8D"/>
<path d="M485 491H1560" stroke="#4F5150" stroke-width="3"/>
<rect x="485" y="492.5" width="1075" height="8" fill="#A5A9AA"/>
<rect x="486.5" y="501.5" width="1072" height="34" fill="#EDEFEE" stroke="#C1C3C2" stroke-width="3"/>
<rect x="486.5" y="540.5" width="1072" height="34" fill="#EDEFEE" stroke="#C1C3C2" stroke-width="3"/>
<rect x="486.5" y="579.5" width="1072" height="34" fill="#EDEFEE" stroke="#C1C3C2" stroke-width="3"/>
<rect x="486.5" y="618.5" width="1072" height="34" fill="#EDEFEE" stroke="#C1C3C2" stroke-width="3"/>
<rect x="486.5" y="657.5" width="1072" height="34" fill="#EDEFEE" stroke="#C1C3C2" stroke-width="3"/>
<rect x="486.5" y="696.5" width="1072" height="34" fill="#EDEFEE" stroke="#C1C3C2" stroke-width="3"/>
<rect x="486.5" y="735.5" width="1072" height="34" fill="#EDEFEE" stroke="#C1C3C2" stroke-width="3"/>
<rect x="486.5" y="774.5" width="1072" height="34" fill="#EDEFEE" stroke="#C1C3C2" stroke-width="3"/>
<rect x="486.5" y="813.5" width="1072" height="34" fill="#EDEFEE" stroke="#C1C3C2" stroke-width="3"/>
<rect x="486.5" y="852.5" width="1072" height="34" fill="#EDEFEE" stroke="#C1C3C2" stroke-width="3"/>
<rect x="486.5" y="891.5" width="1072" height="34" fill="#EDEFEE" stroke="#C1C3C2" stroke-width="3"/>
<rect x="486.5" y="930.5" width="1072" height="34" fill="#EDEFEE" stroke="#C1C3C2" stroke-width="3"/>
<rect x="486.5" y="969.5" width="1072" height="34" fill="#EDEFEE" stroke="#C1C3C2" stroke-width="3"/>
<rect x="486.5" y="1008.5" width="1072" height="34" fill="#EDEFEE" stroke="#C1C3C2" stroke-width="3"/>
<rect x="486.5" y="1047.5" width="1072" height="34" fill="#EDEFEE" stroke="#C1C3C2" stroke-width="3"/>
<rect x="486.5" y="1086.5" width="1072" height="34" fill="#EDEFEE" stroke="#C1C3C2" stroke-width="3"/>
<rect x="486.5" y="1125.5" width="1072" height="34" fill="#EDEFEE" stroke="#C1C3C2" stroke-width="3"/>
<rect x="486.5" y="1164.5" width="1072" height="34" fill="#EDEFEE" stroke="#C1C3C2" stroke-width="3"/>
<rect x="486.5" y="1203.5" width="1072" height="34" fill="#EDEFEE" stroke="#C1C3C2" stroke-width="3"/>
<rect x="486.5" y="1242.5" width="1072" height="34" fill="#EDEFEE" stroke="#C1C3C2" stroke-width="3"/>
<rect x="486.5" y="1281.5" width="1072" height="34" fill="#EDEFEE" stroke="#C1C3C2" stroke-width="3"/>
<rect x="486.5" y="1320.5" width="1072" height="34" fill="#EDEFEE" stroke="#C1C3C2" stroke-width="3"/>
<rect x="486.5" y="1359.5" width="1072" height="34" fill="#EDEFEE" stroke="#C1C3C2" stroke-width="3"/>
<rect x="707" y="698" width="631" height="523" fill="#333333"/>
<path d="M487 699C487 698.448 487.448 698 488 698H706C706.552 698 707 698.448 707 699V955.634V1221C707 1221.3 706.861 1221.59 706.624 1221.78L488.624 1395.7C487.969 1396.23 487 1395.76 487 1394.92L487 1002.34L487 699Z" fill="#292929"/>
<path d="M1558 699C1558 698.448 1557.55 698 1557 698H1339C1338.45 698 1338 698.448 1338 699V955.634V1221C1338 1221.3 1338.14 1221.59 1338.38 1221.78L1556.38 1395.7C1557.03 1396.23 1558 1395.76 1558 1394.92L1558 1002.34L1558 699Z" fill="#292929"/>
<path d="M1022.5 1221H1337.5L1553 1393L1028.67 1392L492 1393L707 1221H1022.5Z" fill="url(#paint0_linear_1_96)"/>
<path d="M485 700.5H1560" stroke="#0D0D0D" stroke-width="8"/>
<defs>
<linearGradient id="paint0_linear_1_96" x1="1022.75" y1="1221" x2="1022.75" y2="1395" gradientUnits="userSpaceOnUse">
<stop stop-color="#323537"/>
<stop offset="1" stop-color="#747577"/>
</linearGradient>
<clipPath id="clip0_1_96">
<rect width="1762.5" height="376" fill="white" transform="translate(134 45)"/>
</clipPath>
</defs>
</svg>
