<svg width="170" height="170" viewBox="0 0 170 170" fill="none" xmlns="http://www.w3.org/2000/svg">
<g clip-path="url(#clip0_181_10544)">
<circle cx="85" cy="85" r="85" fill="white"/>
<path d="M84.5203 135.041C112.422 135.041 135.041 112.422 135.041 84.5203C135.041 56.6187 112.422 34 84.5203 34C56.6187 34 34 56.6187 34 84.5203C34 112.422 56.6187 135.041 84.5203 135.041Z" fill="#F8F8F8"/>
<path d="M136.798 74.8709C136.11 71.4992 135.078 68.1894 133.742 65.0206C132.428 61.9138 130.798 58.9142 128.904 56.1119C127.032 53.3378 124.878 50.7272 122.504 48.3591C120.131 45.9853 117.526 43.837 114.752 41.9595C111.949 40.0649 108.95 38.4411 105.843 37.1217C102.674 35.7797 99.3586 34.7535 95.9925 34.0657C92.5361 33.3609 88.9839 33 85.4317 33C81.8795 33 78.3273 33.3609 74.8709 34.0657C71.4992 34.7535 68.1894 35.7854 65.0206 37.1217C61.9138 38.4354 58.9142 40.0649 56.1119 41.9595C53.3378 43.8314 50.7272 45.9853 48.3591 48.3591C45.9853 50.7328 43.837 53.3378 41.9595 56.1119C40.0649 58.9142 38.4411 61.9138 37.1217 65.0206C35.7797 68.1894 34.7535 71.5048 34.0657 74.8709C33.3609 78.3273 33 81.8795 33 85.4317C33 88.9839 33.3609 92.5361 34.0657 95.9925C34.7535 99.3642 35.7854 102.674 37.1217 105.843C38.4354 108.95 40.0649 111.949 41.9595 114.752C43.8314 117.526 45.9853 120.136 48.3591 122.504C50.7328 124.878 53.3378 127.026 56.1119 128.904C58.9142 130.798 61.9138 132.422 65.0206 133.742C68.1894 135.084 71.5048 136.11 74.8709 136.798C78.3273 137.503 81.8795 137.863 85.4317 137.863C88.9839 137.863 92.5361 137.503 95.9925 136.798C99.3642 136.11 102.674 135.078 105.843 133.742C108.95 132.428 111.949 130.798 114.752 128.904C117.526 127.032 120.136 124.878 122.504 122.504C124.878 120.131 127.026 117.526 128.904 114.752C130.798 111.949 132.422 108.95 133.742 105.843C135.084 102.674 136.11 99.3586 136.798 95.9925C137.503 92.5361 137.863 88.9839 137.863 85.4317C137.863 81.8795 137.503 78.3273 136.798 74.8709ZM131.357 85.4317C131.357 110.793 110.793 131.357 85.4317 131.357C60.0701 131.357 39.5067 110.793 39.5067 85.4317C39.5067 60.0701 60.0644 39.5067 85.4317 39.5067C110.799 39.5067 131.357 60.0701 131.357 85.4317Z" fill="#FFBC57"/>
<path d="M75.5769 106.836C75.56 106.836 75.5375 106.836 75.5206 106.836C74.5113 106.819 73.5697 106.334 72.9664 105.522L62.6424 91.6234C61.5711 90.18 61.8699 88.1445 63.3134 87.0732C64.7568 86.0019 66.7923 86.3007 67.8636 87.7442L75.6672 98.2485L102.021 65.2243C103.143 63.8203 105.19 63.5891 106.594 64.7112C107.998 65.8332 108.229 67.88 107.107 69.284L78.1199 105.612C77.4996 106.385 76.5637 106.836 75.5769 106.836Z" fill="#2B2929"/>
</g>
<defs>
<clipPath id="clip0_181_10544">
<rect width="170" height="170" fill="white"/>
</clipPath>
</defs>
</svg>
